<svg xmlns="http://www.w3.org/2000/svg" viewBox="0 0 200 48" fill="none" role="img" aria-label="RMS">
  <defs>
    <linearGradient id="rms-grad" x1="0%" y1="0%" x2="100%" y2="100%">
      <stop offset="0%" stop-color="#e85d3a"/>
      <stop offset="55%" stop-color="#d4622a"/>
      <stop offset="100%" stop-color="#c9a227"/>
    </linearGradient>
    <linearGradient id="rms-shine" x1="0%" y1="0%" x2="0%" y2="100%">
      <stop offset="0%" stop-color="#fff" stop-opacity="0.35"/>
      <stop offset="100%" stop-color="#fff" stop-opacity="0"/>
    </linearGradient>
  </defs>
  <rect x="0" y="4" width="40" height="40" rx="12" fill="url(#rms-grad)"/>
  <rect x="0" y="4" width="40" height="20" rx="12" fill="url(#rms-shine)"/>
  <path fill="#fff" d="M14 14v14c0 1.1.9 2 2 2s2-.9 2-2V14h-4zm6 0v14c0 1.1.9 2 2 2s2-.9 2-2V14h-4zm-3-4c1.7 0 3-1.3 3-3s-1.3-3-3-3-3 1.3-3 3 1.3 3 3 3z"/>
  <path fill="#fff" opacity="0.9" d="M26 18c0-2.2 1.8-4 4-4 1.2 0 2.3.5 3 1.4V14h2v16h-2v-1.4c-.7.9-1.8 1.4-3 1.4-2.2 0-4-1.8-4-4v-4zm4 2c-1.1 0-2 .9-2 2s.9 2 2 2 2-.9 2-2-.9-2-2-2z"/>
  <text x="52" y="31" font-family="Instrument Serif, Georgia, serif" font-size="22" fill="#1a1410">RMS</text>
  <text x="52" y="44" font-family="Inter, sans-serif" font-size="9" fill="#8a7f72" letter-spacing="0.14em">RESTAURANT OS</text>
</svg>
